.
 
http://www.scenetime.com    -   SceneTime [ We been having it ] !!!


How come you press harder on a remote control when you know the battery is dead? so you better seed to get speed ;)

        Seed back for speed


...................................NFO:.................................................[img]http://img121.imageshack.us/img121/5681/anuvahood.jpg[/img]


[color=blue][size=5][b]Anuvahood.2011.BDRip.XVID.AC3.HQ.Hive-CM8[/b][/size][/color]


[b]Thx Hive


CM8 Doing It Right The First Time :D


Source Bluray

Video: 720x400 @bitrate 1800 2pass
Audio: English DTS to AC3 5.1 @448
Sample: yes included
Subs: yes english in srt /subs[/b]


[url]http://www.imdb.com/title/tt1658797/[/url]


General
Complete name                    : Anuvahood.2011.BDRip.XVID.AC3.HQ.Hive-CM8.avi
Format                           : AVI
Format/Info                      : Audio Video Interleave
File size                        : 1.40 GiB
Duration                         : 1h 28mn
Overall bit rate                 : 2 253 Kbps
Writing application              : Nandub v1.0rc2
Writing library                  : Nandub build 1853/release

Video
ID                               : 0
Format                           : MPEG-4 Visual
Format profile                   : Advanced Simple@L5
Format settings, BVOP            : 1
Format settings, QPel            : Yes
Format settings, GMC             : No warppoints
Format settings, Matrix          : Default (H.263)
Muxing mode                      : Packed bitstream
Codec ID                         : XVID
Codec ID/Hint                    : XviD
Duration                         : 1h 28mn
Bit rate                         : 1 795 Kbps
Width                            : 720 pixels
Height                           : 400 pixels
Display aspect ratio             : 16:9
Frame rate                       : 23.976 fps
Color space                      : YUV
Chroma subsampling               : 4:2:0
Bit depth                        : 8 bits
Scan type                        : Progressive
Compression mode                 : Lossy
Bits/(Pixel*Frame)               : 0.260
Stream size                      : 1.11 GiB (80%)
Writing library                  : XviD 1.2.1 (UTC 2008-12-04)

Audio
ID                               : 1
Format                           : AC-3
Format/Info                      : Audio Coding 3
Mode extension                   : CM (complete main)
Codec ID                         : 2000
Duration                         : 1h 28mn
Bit rate mode                    : Constant
Bit rate                         : 448 Kbps
Channel(s)                       : 6 channels
Channel positions                : Front: L C R, Side: L R, LFE
Sampling rate                    : 48.0 KHz
Bit depth                        : 16 bits
Compression mode                 : Lossy
Stream size                      : 285 MiB (20%)
Alignment                        : Split accross interleaves
Interleave, duration             : 42 ms (1.00 video frame)
Interleave, preload duration     : 500 ms


Adam Deacon      ...    Kenneth
Femi Oyeniran    ...    Bookie
Ollie Barbieri   ...    Enrique
Jazzie Zonzolo   ...    T.J.
Michael Vu       ...    Lesoi
Richie Campbell  ...    Tyrone


A pulls-no-punches, coming-of-age story, centering on one
directionless hopeless "shotter", who finds his true worth
in the face of urban adversity.


[img]http://img199.imageshack.us/img199/903/89349622.png[/img]
[img]http://img694.imageshack.us/img694/3479/anans.png[/img]
[img]http://img15.imageshack.us/img15/5277/ananan.png[/img]
[img]http://img69.imageshack.us/img69/4044/anananan.png[/img]
[img]http://img844.imageshack.us/img844/3241/ananananan.png[/img]
[img]http://img825.imageshack.us/img825/4049/anananananan.png[/img]
[img]http://img714.imageshack.us/img714/8843/ananananananan.png[/img]


Cover + Label:
[img]http://img840.imageshack.us/img840/5436/anuvahood2011moviecover.jpg[/img]

[img]http://img163.imageshack.us/img163/8871/biggh.jpg[/img]



Greetz

ViSiON,SANTi,MAGNET,THC,T0XiC,LKRG,IMAGiNE,WBZ,FLAWL3SS,NOVA
D2U,Vik,Rapeseed,SAFC,goldadvance,MEMORY100,KaN1vE,Unevano,
Pinnz,Wayne,Mr Hive and all P2P groups 
Great Work Guys :D

FYS

CM8@hushmail.com